# xmcd CD database file generated by OrangeCD 6.1
#
# Track frame offsets:
#	150
#	15535
#	33832
#	58882
#	75135
#	89347
#	110800
#	135377
#
# Disc length: 2024 seconds
#
# Revision: 3
# Processed by: cddbd v1.5.2PL0 Copyright (c) Steve Scherf et al.
# Submitted via: OrangeCD 6.1
#
DISCID=5807e608
DTITLE=Albert Lee - Speechless
DYEAR=1986
DGENRE=country
TTITLE0=T-Bird To Vegas
TTITLE1=Bullish Boogie
TTITLE2=Seventeenth Summer
TTITLE3=Salt Creek
TTITLE4=Arkansas Traveler
TTITLE5=Cannonball
TTITLE6=Romany Rye
TTITLE7=Erin
EXTD=
EXTT0=
EXTT1=
EXTT2=
EXTT3=
EXTT4=
EXTT5=
EXTT6=
EXTT7=
PLAYORDER=
